<svg width="45" height="28" viewBox="0 0 45 28" fill="none" xmlns="http://www.w3.org/2000/svg">
<path d="M14.877 24.5773H29.486C31.4082 24.5773 32.0771 23.9951 32.0771 22.9174C32.0771 19.9024 28.2539 15.7559 22.1815 15.7559C16.1016 15.7559 12.2764 19.9024 12.2764 22.9174C12.2764 23.9951 12.9453 24.5773 14.877 24.5773ZM22.1815 13.6751C24.7453 13.6751 26.9091 11.404 26.9091 8.46799C26.9091 5.58611 24.7294 3.39307 22.1815 3.39307C19.6432 3.39307 17.4518 5.62666 17.4657 8.48932C17.4678 11.404 19.6294 13.6751 22.1815 13.6751Z" />
<path d="M2.15953 24.5794H10.9444C9.69399 22.7866 11.0684 19.2389 13.7072 17.1776C12.4137 16.3441 10.7358 15.7228 8.62148 15.7228C3.38273 15.7228 0 19.5872 0 22.7721C0 23.9238 0.582656 24.5794 2.15953 24.5794ZM8.62148 13.9425C10.8509 13.9425 12.7355 11.9547 12.7355 9.40756C12.7355 6.89857 10.8349 4.98889 8.62148 4.98889C6.41555 4.98889 4.49789 6.93701 4.50961 9.42678C4.51172 11.9547 6.40172 13.9425 8.62148 13.9425ZM42.1784 24.5794C43.7552 24.5794 44.3379 23.9238 44.3379 22.7721C44.3379 19.5872 40.9552 15.7228 35.7164 15.7228C33.5925 15.7228 31.9146 16.3441 30.6307 17.1776C33.2599 19.2389 34.6343 22.7866 33.3839 24.5794H42.1784ZM35.7068 13.9425C37.9362 13.9425 39.8262 11.9547 39.8283 9.42678C39.8304 6.93701 37.9223 4.98889 35.7068 4.98889C33.503 4.98889 31.5928 6.89857 31.5928 9.40756C31.5928 11.9547 33.487 13.9425 35.7068 13.9425Z" />
</svg>
