<svg width="28" height="28" viewBox="0 0 28 28" fill="none" xmlns="http://www.w3.org/2000/svg">
<path d="M11.5731 8.66971C11.0994 8.66971 10.7066 8.27479 10.7066 7.80323C10.7066 7.31784 11.0994 6.93253 11.5731 6.93253H20.1159C20.5895 6.93253 20.9823 7.31784 20.9823 7.80323C20.9823 8.27479 20.5895 8.66971 20.1159 8.66971H11.5731ZM11.5731 12.0653C11.0994 12.0653 10.7066 11.6704 10.7066 11.185C10.7066 10.7135 11.0994 10.3281 11.5731 10.3281H18.0606C18.5418 10.3281 18.9271 10.7135 18.9271 11.185C18.9271 11.6704 18.5418 12.0653 18.0606 12.0653H11.5731ZM7.77695 26.358H23.0202C23.6308 26.358 24.1033 25.8951 24.1033 25.2749C24.1033 24.7551 23.7482 24.3728 23.3057 24.1743C21.8671 23.5398 21.5793 21.5559 23.0472 20.148C23.6254 19.6288 24.0948 19.0504 24.0948 17.8659V4.84846C24.0948 2.32659 22.8013 1.00214 20.2891 1.00214H7.80577C5.29562 1.00214 4 2.31698 4 4.84846V22.5597C4 25.0623 5.30523 26.358 7.77695 26.358ZM8.07225 24.1844C6.8296 24.1844 6.17991 23.4862 6.17991 22.3771C6.17991 21.3182 6.9278 20.5816 8.16085 20.5816H19.8827C20.0181 20.5816 20.1461 20.572 20.2527 20.5527C19.683 21.7884 19.7556 23.1281 20.3725 24.1844H8.07225ZM7.61733 18.697C7.23085 18.697 6.90929 18.3754 6.90929 17.9793V3.67424C6.90929 3.27815 7.23085 2.9662 7.61733 2.9662C8.00171 2.9662 8.33288 3.27815 8.33288 3.67424V17.9793C8.33288 18.3754 8.00171 18.697 7.61733 18.697Z" />
</svg>
