<svg width="28" height="28" viewBox="0 0 28 28" fill="none" xmlns="http://www.w3.org/2000/svg">
<path d="M4.04492 9.07297C6.90781 12.2077 11.0028 14.0227 15.3387 14.0131C18.7901 14.0035 22.0763 12.833 24.7332 10.6902L23.9809 9.21102C21.5837 11.2815 18.5464 12.4126 15.3387 12.4222C11.2009 12.4318 7.35148 10.5955 4.78132 7.43422L4.04492 9.07297ZM2.76781 15.7327C8.87843 20.9844 17.6457 21.9591 24.7044 18.2309L24.6587 16.423C17.8372 20.4608 9.05187 19.4722 3.18054 13.9555L2.76781 15.7327ZM8.61195 23.7941L10.4923 24.2166C9.65444 22.2603 9.20514 20.1732 9.17632 18.0317C8.90725 12.2666 11.4319 6.79625 15.9064 3.19789L14.2271 2.52969C9.79202 6.42711 7.32804 12.1091 7.58749 18.0509C7.60671 20.0019 7.9571 21.9252 8.61195 23.7941ZM16.4 24.9648L17.8824 24.305C15.6678 21.2218 14.4619 17.5517 14.4619 13.7218C14.4619 10.0995 15.523 6.635 17.5161 3.69664L15.9666 3.14961C13.948 6.29445 12.8689 9.95164 12.8689 13.7218C12.8689 17.7859 14.1024 21.6666 16.4 24.9648ZM23.2306 20.6349L24.3043 19.426C20.3499 17.1875 17.8869 13.055 17.8388 8.47391C17.8196 6.84383 18.1147 5.21703 18.7133 3.70437L17.1798 3.27125C16.5418 4.92664 16.2287 6.67578 16.2479 8.48352C16.2959 13.4998 18.9516 18.0889 23.2306 20.6349ZM9.08444 13.8788C10.1354 13.8788 10.9979 13.0067 10.9979 11.9462C10.9979 10.8877 10.1354 10.0231 9.08444 10.0231C8.0164 10.0231 7.14968 10.8877 7.14968 11.9462C7.14968 13.0067 8.0164 13.8788 9.08444 13.8788ZM18.0842 14.8473C19.1276 14.8473 19.9848 13.9923 19.9848 12.9254C19.9848 11.8798 19.1276 11.0248 18.0842 11.0248C17.0173 11.0248 16.1623 11.8798 16.1623 12.9254C16.1623 13.9923 17.0173 14.8473 18.0842 14.8473ZM14.5815 21.5216C15.6462 21.5216 16.4991 20.6666 16.4991 19.5922C16.4991 18.5253 15.642 17.6586 14.5815 17.6586C13.5029 17.6586 12.6362 18.5253 12.6362 19.5922C12.6362 20.6666 13.5029 21.5216 14.5815 21.5216ZM14.105 26.21C20.7369 26.21 26.2121 20.7273 26.2121 14.105C26.2121 7.47312 20.7273 2 14.0954 2C7.47523 2 2 7.47312 2 14.105C2 20.7273 7.48484 26.21 14.105 26.21ZM14.105 24.3336C8.51233 24.3336 3.8785 19.6998 3.8785 14.105C3.8785 8.51023 8.50273 3.87639 14.0954 3.87639C19.6902 3.87639 24.3336 8.51023 24.3336 14.105C24.3336 19.6998 19.6998 24.3336 14.105 24.3336Z" />
</svg>
